<svg version="1" xmlns="http://www.w3.org/2000/svg" width="1365.333" height="1365.333" viewBox="0 0 1024.000000 1024.000000"><path d="M478.5.6c-2.2.2-9.2.9-15.5 1.4C302.1 16.4 154.4 110.5 70.7 251.6 30.8 319 7.4 393.9 1.1 473.9c-1.4 17.3-1.4 58.9 0 76.2C10.8 674.4 62.4 786.7 150 874c88.2 88.1 200.1 139.4 324.9 149 17.3 1.3 56.9 1.3 74.2 0 145.5-11.2 275.3-80.3 366-195 62.3-78.7 99.8-175.3 107.8-277.9 1.4-17.3 1.4-58.9 0-76.2-13.5-171.5-108.4-321.6-257.7-407.3-61.3-35.2-126.9-56.1-202.7-64.7-9.6-1-75.7-2.1-84-1.3zM349 198c4.2 2.2 6.4 5.4 7.5 11 .5 2.8-.2 5.1-3.3 11.5-8.8 18.1-37.3 66.4-62.2 105.5-16.6 26.1-16.3 25.6-15.6 28.7.9 3.4 34.4 61.4 36.8 63.5 1 .9 2.5 1.5 3.2 1.2.8-.3 7.7-9.4 15.4-20.2 23.1-32.6 51.9-77 77.3-119 8.2-13.8 12.1-17.2 19.5-17.2 7.9 0 14.4 7.3 14.4 16.1 0 4.9-3.6 11.6-26.3 47.9-33.7 54.1-74.2 111.9-111.6 159.5-3.9 5-7.1 10-7.1 11.2 0 2.1.4 2.3 6.3 2.3 3.4-.1 32.8-1.6 65.4-3.4 42.6-2.3 59.6-3.6 60.8-4.6.8-.7 1.5-2.3 1.5-3.6 0-3.6-8.1-30.9-18.2-61.1-10.2-30.9-10.3-31.6-3.9-38.3 3.5-3.7 4.2-4 9-4 5.7 0 9.4 1.5 12.8 5.2 2.6 2.7 15 38.9 24.9 72.3 7.4 25.2 18.2 67.6 19 75 1.3 12.4-10.3 20.1-21.6 14.3-5.6-2.8-7.3-6.1-10.1-19.1-1.4-6.5-2.6-10-3.7-10.6-1-.5-17.9.1-41 1.4-37.4 2.1-39.5 2.4-41.5 4.4l-2.2 2.2-.5 138.7c-.5 136.7-.5 138.7-2.5 141.4-7.1 9.6-22.7 8.7-28.3-1.5-1.6-3-1.7-12.6-2.2-140.7l-.5-137.4-2.1-1.1c-1.5-.8-16.9-.2-54.8 1.9l-52.7 2.9-2.7-2c-7.4-5.5-9.3-13.8-4.6-20.1 4.1-5.3 9-6.9 23.4-7.7 17.6-.9 24.9-2.1 27.2-4.2 2.5-2.2 35-44 36.6-47 .7-1.2 1.2-3.3 1.2-4.6 0-1.5-15.7-28.6-38.6-66.8-21.2-35.4-39.4-66-40.4-67.9-4.2-8.4-2.8-17.8 3.5-24 3.2-3.1 4.2-3.5 9-3.5 3.7 0 5.9.5 7.3 1.8 1.1 1 5.3 7.3 9.3 14 9.1 15.4 11.5 18.7 13.9 18.7 2.9 0 38-57.2 61.3-100 5.3-9.6 10.6-18.6 11.9-19.9 5-5.3 13.1-6.5 19.8-3.1zm414.5 21.9c8.4 3.4 19.2 14.2 22.6 22.6l2.4 6 .5 96.7c.3 53.1.9 97 1.3 97.5.5.4 9.5 1 20 1.3 16.7.4 19.6.7 22 2.4 8.6 5.8 7.8 20.2-1.3 24.8-3.2 1.7-9.3 1.8-83.1 1.8-69.6 0-79.8.2-80.9 1.5-3.1 3.8 2.6 23.3 17.5 59 12.4 29.7 34.1 72.7 37.7 74.6 1.7.9 2.7.2 6.9-4.3 21.4-22.9 45-54.7 62.9-84.7 9.8-16.4 13.8-18.8 23.5-14.1 5.8 2.8 7.9 7 7.3 14.7-.3 5.2-1.2 7.4-6.3 15.9-18.3 30.7-43.9 65.6-67.9 92.5-4.3 4.7-7.6 9.3-7.6 10.5 0 2.1 13.2 22.2 24.2 36.7 20.2 26.8 39.5 48.5 62.6 70.7 19.3 18.4 21.2 21.4 19.2 28.9-2.2 8.1-11.6 14.2-19.7 12.6-6-1.1-33.3-27.5-55.8-54-38.6-45.5-69.6-95.9-96.2-156.5-5.6-12.7-6.9-15-8.4-15-.5 0-.9 36.8-.9 84.7 0 87.3-.7 108.1-3.9 124-4.3 20.7-11 28-30.6 33-13.2 3.4-86 1.7-93.4-2.1-9.1-4.8-11.3-16-4.5-23.2l3.4-3.7 17.7.9c9.8.5 27.9.9 40.3.9 20.9 0 22.7-.1 26-2.1 4.2-2.4 7.4-7 9.7-13.8 1.6-4.6 1.8-12 2.1-71.4.3-65.2.3-66.2-1.7-66.2-1.2 0-6.5 5-14.4 13.7-21.6 23.8-54 55-78.7 75.9-28.5 24.1-78.6 60.8-84.8 62-4.7.9-11.3-1.4-15.4-5.6-3.4-3.4-3.8-4.3-3.8-8.9 0-2.9.7-6.5 1.5-8 .9-1.8 7.4-7 17.2-13.7 33.1-22.8 67.9-49.9 96.7-75.3 27.2-23.9 77.4-76 82-85 1.4-2.6 1.6-9.7 1.6-52.5 0-43.6-.2-49.6-1.6-51-1.4-1.4-9.2-1.6-71.2-1.6-64.4 0-70-.1-73.2-1.8-10.6-5.3-10.6-20.1 0-25.4 3.3-1.7 11.7-1.8 133.7-1.8 117 0 130.3-.2 131.7-1.6 1.4-1.3 1.6-6.5 1.6-41 0-25.3-.4-40.2-1-41.5-1-1.9-3.4-1.9-118.3-1.9-74.1 0-118.5-.4-120.8-1-10.5-2.9-13.6-16.3-5.5-23.8l3.6-3.2h118.2c93.4 0 118.8-.3 120.8-1.3l2.5-1.3.3-38.8c.1-27.6-.1-39.3-.9-40.2-.9-1.1-22.4-1.4-124.8-1.6l-123.7-.3-3.7-2.5c-5.2-3.6-7.1-7.5-6.5-13.9.6-5.7 3.2-9.4 8.3-11.7 2.5-1.1 25.3-1.3 129-1.1l126 .2 6 2.4zM511.2 503.6c4 2.1 43.4 64.2 56.5 89.2 3.9 7.4 4.4 9.1 3.9 12.6-1.7 10.2-9.5 16.8-17.5 14.6-2.2-.6-5.2-2.1-6.5-3.3-1.4-1.2-6.3-9-10.9-17.2-10.3-18.4-22.4-38.4-37-61.4-9.7-15.3-11.1-18-11.5-22.6-.4-4.7-.1-5.5 2.8-8.8 1.8-2 4.6-4.1 6.4-4.6 3.6-1.1 10-.4 13.8 1.5zm-92.5 68.3c2.3 1.1 4.9 3.1 5.9 4.6 2.8 4.3 13.1 62.2 19.9 111.3 2.8 20.2 2.6 21.6-3 26.1-6.4 5-13.9 4.8-19.7-.7-3.2-3-3.8-5.6-7.3-32.2-2.8-20.9-8.9-58.3-13-79.5-2.9-14.9-3.1-19.2-1.1-23.9 3-7.3 10-9.4 18.3-5.7zM263.5 576c6.2 3 7.9 6.7 7.1 15.4-4.2 43.2-14.4 99.5-26.1 143.6-6.9 26.1-8.4 30.1-12.5 34.2-3.5 3.6-4.1 3.8-9.8 3.8-5.4 0-6.5-.4-9.6-3-6.4-5.7-6.4-7.3-.2-30.2 13.4-49.2 21.2-89.9 27.1-141.6.9-7.4 2.2-14.6 2.9-16 3.9-7.6 12.9-10.2 21.1-6.2z"/></svg>